<?xml version="1.0" standalone="no"?>
<!DOCTYPE svg PUBLIC "-//W3C//DTD SVG 20010904//EN"
 "http://www.w3.org/TR/2001/REC-SVG-20010904/DTD/svg10.dtd">
<svg version="1.0" xmlns="http://www.w3.org/2000/svg"
 width="6250.000000pt" height="3125.000000pt" viewBox="0 0 6250.000000 3125.000000"
 preserveAspectRatio="xMidYMid meet">

<g transform="translate(0.000000,3125.000000) scale(0.100000,-0.100000)"
fill="#000000" stroke="none">
<path d="M10610 26289 c-2400 -121 -4520 -1042 -6111 -2656 -425 -431 -758
-838 -1091 -1333 -494 -734 -910 -1584 -1215 -2485 -335 -992 -540 -2085 -618
-3294 -60 -935 -34 -2000 70 -2896 167 -1442 529 -2713 1094 -3843 544 -1089
1221 -1998 2056 -2761 947 -864 2069 -1505 3310 -1890 1410 -437 3065 -569
4650 -370 1843 231 3429 916 4717 2036 156 136 563 542 694 693 499 575 876
1140 1190 1785 444 911 716 1902 829 3020 48 474 48 489 52 2128 l4 1557
-4270 0 -4271 0 0 -1490 0 -1490 2427 0 2426 0 -7 -147 c-50 -1101 -347 -2026
-902 -2803 -532 -745 -1302 -1308 -2222 -1624 -615 -211 -1208 -308 -1972
-323 -1033 -20 -1910 164 -2735 572 -532 263 -930 549 -1351 969 -200 201
-332 353 -495 568 -706 938 -1160 2091 -1363 3463 -142 964 -165 2145 -60
3160 173 1688 715 3086 1615 4170 106 127 412 439 549 559 296 260 577 455
940 655 857 470 1838 688 2918 650 840 -29 1535 -185 2193 -492 707 -330 1364
-911 1834 -1622 252 -380 454 -797 616 -1265 l67 -195 1941 -3 c1888 -2 1941
-2 1941 17 0 33 -68 403 -105 566 -272 1215 -816 2321 -1624 3300 -770 932
-1832 1737 -2976 2255 -1310 594 -2657 874 -4180 868 -220 0 -474 -5 -565 -9z"/>
<path d="M30870 26290 c-1089 -59 -2023 -244 -2923 -580 -475 -176 -1029 -451
-1447 -715 -963 -610 -1735 -1443 -2201 -2375 -258 -516 -424 -1049 -508
-1636 -71 -489 -80 -1095 -25 -1579 128 -1129 564 -2053 1321 -2796 800 -786
1936 -1435 3318 -1894 471 -157 546 -177 2195 -600 635 -163 1223 -314 1305
-336 1075 -287 2001 -649 2490 -972 411 -272 705 -571 878 -892 220 -409 292
-936 201 -1470 -134 -785 -633 -1446 -1444 -1912 -456 -263 -1049 -460 -1655
-553 -756 -115 -1644 -100 -2355 41 -741 146 -1348 401 -1834 767 -449 338
-790 764 -994 1242 -125 292 -215 643 -252 980 -6 58 -13 120 -16 138 l-5 32
-1875 0 -1876 0 7 -112 c76 -1328 420 -2446 1038 -3373 364 -545 854 -1058
1397 -1462 775 -577 1701 -997 2785 -1263 1168 -286 2564 -388 3980 -290 1075
75 2062 278 2894 595 1001 382 1810 891 2458 1546 434 440 754 888 1023 1434
180 365 304 704 399 1088 116 466 167 869 178 1387 20 1023 -161 1871 -559
2614 -413 772 -920 1345 -1698 1918 -727 535 -1642 980 -2781 1353 -378 124
-707 214 -1421 391 -1534 379 -2034 505 -2233 563 -1093 314 -1840 669 -2301
1093 -440 406 -664 832 -725 1378 -16 144 -13 451 5 591 124 965 776 1709
1866 2129 295 113 619 195 995 250 480 70 1128 80 1655 25 1022 -106 1881
-484 2460 -1081 398 -410 644 -902 749 -1499 11 -60 23 -136 27 -167 l6 -58
1836 0 1835 0 -7 163 c-33 774 -200 1486 -503 2142 -387 837 -1026 1612 -1818
2205 -874 654 -1905 1108 -3065 1350 -439 92 -876 150 -1430 191 -185 13
-1146 20 -1350 9z"/>
<path d="M51255 26289 c-1944 -94 -3750 -736 -5200 -1848 -860 -659 -1629
-1513 -2202 -2447 -661 -1076 -1133 -2293 -1393 -3593 -128 -644 -201 -1232
-252 -2036 -18 -275 -18 -1518 0 -1795 85 -1345 263 -2342 607 -3400 520
-1603 1442 -3068 2590 -4119 1212 -1110 2616 -1817 4290 -2161 1216 -250 2652
-287 3930 -99 1104 162 2193 520 3065 1009 1279 717 2224 1626 2975 2860 631
1036 1020 2247 1160 3610 48 465 48 442 52 2118 l4 1592 -4270 0 -4271 0 0
-1490 0 -1490 2425 0 2425 0 0 -104 c0 -286 -63 -796 -140 -1128 -206 -890
-626 -1667 -1225 -2263 -713 -709 -1702 -1176 -2825 -1334 -379 -53 -579 -66
-1040 -66 -410 0 -522 7 -830 46 -1247 157 -2296 661 -3135 1504 -885 889
-1501 2146 -1780 3629 -230 1221 -254 2758 -64 4036 218 1469 737 2700 1555
3685 135 163 470 499 629 631 775 644 1687 1043 2705 1183 479 66 1079 72
1590 16 931 -104 1750 -409 2395 -893 334 -250 648 -562 912 -903 348 -450
655 -1040 843 -1621 l41 -128 1938 0 c1066 0 1940 2 1943 5 7 7 -51 339 -91
525 -218 1003 -604 1899 -1189 2760 -969 1426 -2429 2531 -4162 3150 -894 320
-1748 489 -2805 555 -250 16 -907 18 -1200 4z"/>
</g>
</svg>
