<?xml version="1.0" standalone="no"?>
<!DOCTYPE svg PUBLIC "-//W3C//DTD SVG 20010904//EN"
 "http://www.w3.org/TR/2001/REC-SVG-20010904/DTD/svg10.dtd">
<svg version="1.0" xmlns="http://www.w3.org/2000/svg"
 width="2300.000000pt" height="4600.000000pt" viewBox="0 0 2300.000000 4600.000000"
 preserveAspectRatio="xMidYMid meet">

<g transform="translate(0.000000,4600.000000) scale(0.100000,-0.100000)"
fill="#000000" stroke="none">
<path d="M11655 42369 c-928 -35 -1771 -316 -2476 -825 -987 -712 -1642 -1830
-1869 -3189 -66 -395 -93 -747 -93 -1220 1 -1081 184 -1954 577 -2747 366
-737 877 -1321 1532 -1749 279 -183 538 -312 874 -433 711 -257 1570 -345
2395 -245 1455 175 2590 930 3199 2129 203 400 338 836 406 1320 39 273 42
347 47 1168 l5 812 -2064 -2 -2063 -3 -3 -722 -2 -723 1175 0 1175 0 -6 -77
c-30 -438 -98 -718 -249 -1028 -208 -424 -530 -752 -953 -969 -293 -149 -624
-240 -1014 -277 -158 -15 -578 -6 -733 15 -532 71 -1024 294 -1390 629 -367
335 -636 758 -817 1287 -109 317 -177 658 -220 1105 -17 176 -17 887 0 1060
65 651 189 1110 420 1559 344 667 837 1106 1497 1332 363 125 790 167 1240
123 798 -79 1416 -476 1804 -1159 74 -130 172 -352 212 -477 l23 -73 938 0
c918 0 938 0 938 19 0 28 -47 260 -76 376 -181 718 -602 1404 -1164 1898 -865
760 -1990 1134 -3265 1086z"/>
<path d="M11550 28693 c-517 -37 -845 -96 -1222 -218 -572 -186 -1035 -461
-1418 -845 -159 -158 -239 -256 -360 -438 -297 -445 -431 -913 -432 -1502 0
-473 92 -851 295 -1212 300 -533 927 -994 1782 -1313 260 -97 518 -170 1259
-360 851 -217 1021 -267 1371 -406 298 -117 496 -235 664 -395 211 -200 305
-406 318 -694 19 -407 -159 -784 -494 -1048 -380 -300 -899 -452 -1538 -452
-367 0 -696 50 -980 150 -445 157 -796 450 -973 811 -86 176 -135 350 -157
557 l-7 62 -902 0 c-497 0 -905 -2 -907 -4 -8 -8 10 -240 31 -387 79 -572 271
-1044 590 -1459 163 -211 485 -503 720 -654 86 -56 302 -178 351 -199 19 -8
72 -33 119 -55 402 -189 951 -320 1585 -378 252 -23 851 -23 1105 0 676 61
1171 187 1668 426 600 289 1049 710 1327 1242 185 355 285 736 303 1156 33
753 -148 1316 -593 1842 -305 360 -830 712 -1405 940 -386 154 -594 217 -1275
386 -763 189 -917 230 -1110 292 -550 177 -883 377 -1089 655 -261 353 -258
881 7 1272 23 33 79 100 126 148 259 268 632 438 1106 503 162 23 627 26 775
5 509 -69 881 -232 1155 -506 200 -199 315 -418 374 -715 l28 -135 881 -3 882
-2 0 90 c0 111 -31 359 -64 505 -137 619 -504 1172 -1051 1585 -171 130 -302
211 -515 319 -495 252 -1036 392 -1660 431 -150 9 -561 11 -670 3z"/>
<path d="M11525 14969 c-868 -68 -1561 -296 -2206 -724 -277 -184 -469 -345
-719 -602 -593 -610 -1014 -1418 -1225 -2353 -91 -401 -137 -787 -155 -1289
-36 -1017 121 -1969 451 -2744 371 -868 943 -1557 1689 -2034 568 -363 1191
-576 1945 -664 350 -41 925 -38 1295 7 1286 156 2305 753 2964 1739 327 489
532 1028 626 1650 50 330 53 376 57 1228 l5 807 -2066 0 -2066 0 0 -720 0
-720 1173 -2 1172 -3 -3 -95 c-9 -272 -73 -589 -168 -832 -316 -807 -1001
-1301 -1954 -1412 -372 -43 -790 -21 -1115 58 -699 171 -1239 575 -1619 1213
-362 608 -535 1348 -536 2288 0 945 188 1710 571 2324 293 469 728 844 1196
1032 357 143 659 200 1063 200 420 0 768 -66 1100 -209 566 -243 1001 -729
1239 -1382 l49 -135 936 -3 c901 -2 936 -1 936 16 0 40 -43 252 -80 395 -303
1177 -1174 2147 -2360 2630 -471 192 -964 303 -1495 337 -181 11 -550 11 -700
-1z"/>
</g>
</svg>
