<?xml version="1.0" encoding="UTF-8"?>
<svg xmlns="http://www.w3.org/2000/svg" xmlns:xlink="http://www.w3.org/1999/xlink" width="1024px" height="512px" viewBox="0 0 1023 512" version="1.1">
<g id="surface1">
<path style=" stroke:none;fill-rule:nonzero;fill:rgb(0%,0%,0%);fill-opacity:1;" d="M 173.671875 81.273438 C 134.386719 83.257812 99.683594 98.34375 73.640625 124.785156 C 66.6875 131.847656 61.234375 138.515625 55.785156 146.625 C 47.699219 158.648438 40.890625 172.574219 35.894531 187.335938 C 30.414062 203.585938 27.058594 221.492188 25.78125 241.300781 C 24.796875 256.617188 25.222656 274.066406 26.925781 288.746094 C 29.660156 312.367188 35.585938 333.191406 44.832031 351.703125 C 53.738281 369.542969 64.820312 384.4375 78.488281 396.9375 C 93.988281 411.089844 112.355469 421.59375 132.667969 427.898438 C 155.746094 435.058594 182.835938 437.222656 208.78125 433.960938 C 238.949219 430.175781 264.910156 418.953125 285.992188 400.605469 C 288.546875 398.378906 295.207031 391.726562 297.351562 389.253906 C 305.519531 379.832031 311.691406 370.578125 316.832031 360.007812 C 324.097656 345.085938 328.550781 328.851562 330.402344 310.535156 C 331.1875 302.769531 331.1875 302.523438 331.253906 275.671875 L 331.316406 250.164062 L 191.511719 250.164062 L 191.511719 298.984375 L 270.949219 298.984375 L 270.835938 301.390625 C 270.015625 319.429688 265.15625 334.582031 256.070312 347.3125 C 247.363281 359.519531 234.757812 368.742188 219.699219 373.917969 C 209.632812 377.375 199.925781 378.964844 187.421875 379.210938 C 170.511719 379.539062 156.15625 376.523438 142.652344 369.839844 C 133.945312 365.53125 127.429688 360.84375 120.539062 353.964844 C 117.265625 350.671875 115.105469 348.179688 112.4375 344.660156 C 100.878906 329.292969 93.449219 310.402344 90.125 287.925781 C 87.800781 272.132812 87.425781 252.785156 89.144531 236.15625 C 91.976562 208.503906 100.847656 185.597656 115.578125 167.839844 C 117.3125 165.761719 122.324219 160.648438 124.566406 158.683594 C 129.410156 154.421875 134.011719 151.230469 139.953125 147.953125 C 153.980469 140.253906 170.039062 136.679688 187.714844 137.304688 C 201.464844 137.777344 212.839844 140.335938 223.613281 145.363281 C 235.183594 150.769531 245.9375 160.289062 253.632812 171.9375 C 257.757812 178.160156 261.0625 184.992188 263.714844 192.660156 L 264.8125 195.855469 L 296.582031 195.902344 C 327.488281 195.9375 328.355469 195.9375 328.355469 195.625 C 328.355469 195.085938 327.242188 189.023438 326.636719 186.351562 C 322.183594 166.449219 313.28125 148.328125 300.054688 132.289062 C 287.449219 117.023438 270.066406 103.832031 251.339844 95.347656 C 229.898438 85.617188 207.847656 81.027344 182.917969 81.128906 C 179.320312 81.128906 175.160156 81.210938 173.671875 81.273438 M 505.300781 81.257812 C 487.476562 82.226562 472.1875 85.253906 457.453125 90.761719 C 449.679688 93.644531 440.613281 98.148438 433.769531 102.472656 C 418.007812 112.46875 405.371094 126.113281 397.742188 141.382812 C 393.519531 149.835938 390.800781 158.566406 389.425781 168.183594 C 388.265625 176.195312 388.117188 186.125 389.015625 194.054688 C 391.113281 212.550781 398.25 227.6875 410.640625 239.859375 C 423.734375 252.734375 442.332031 263.367188 464.953125 270.886719 C 472.660156 273.460938 473.890625 273.789062 500.878906 280.71875 C 511.273438 283.386719 520.898438 285.863281 522.242188 286.222656 C 539.839844 290.921875 554.996094 296.855469 563 302.144531 C 569.726562 306.601562 574.539062 311.5 577.371094 316.757812 C 580.972656 323.460938 582.152344 332.09375 580.660156 340.84375 C 578.46875 353.703125 570.300781 364.53125 557.023438 372.164062 C 549.5625 376.472656 539.855469 379.703125 529.933594 381.226562 C 517.558594 383.109375 503.023438 382.863281 491.386719 380.554688 C 479.257812 378.160156 469.320312 373.984375 461.367188 367.988281 C 454.015625 362.449219 448.4375 355.472656 445.097656 347.640625 C 443.050781 342.855469 441.578125 337.105469 440.972656 331.585938 C 440.875 330.636719 440.757812 329.621094 440.710938 329.324219 L 440.628906 328.800781 L 379.230469 328.800781 L 379.34375 330.636719 C 380.585938 352.390625 386.21875 370.707031 396.335938 385.894531 C 402.292969 394.824219 410.3125 403.226562 419.203125 409.847656 C 431.886719 419.296875 447.042969 426.179688 464.789062 430.535156 C 483.90625 435.222656 506.757812 436.894531 529.933594 435.289062 C 547.53125 434.058594 563.6875 430.734375 577.304688 425.539062 C 593.691406 419.28125 606.933594 410.945312 617.539062 400.210938 C 624.644531 393.003906 629.882812 385.664062 634.285156 376.71875 C 637.230469 370.742188 639.261719 365.1875 640.816406 358.894531 C 642.714844 351.261719 643.550781 344.660156 643.730469 336.171875 C 644.058594 319.414062 641.09375 305.519531 634.578125 293.347656 C 627.820312 280.699219 619.519531 271.3125 606.785156 261.925781 C 594.886719 253.160156 579.910156 245.871094 561.265625 239.761719 C 555.078125 237.730469 549.691406 236.253906 538.003906 233.355469 C 512.894531 227.144531 504.710938 225.082031 501.453125 224.132812 C 483.5625 218.988281 471.335938 213.171875 463.789062 206.226562 C 456.585938 199.574219 452.921875 192.59375 451.921875 183.648438 C 451.660156 181.289062 451.710938 176.261719 452.003906 173.96875 C 454.035156 158.160156 464.707031 145.96875 482.546875 139.089844 C 487.375 137.238281 492.679688 135.894531 498.835938 134.992188 C 506.691406 133.847656 517.296875 133.683594 525.925781 134.582031 C 542.652344 136.320312 556.714844 142.511719 566.191406 152.292969 C 572.707031 159.011719 576.734375 167.070312 578.453125 176.851562 C 578.632812 177.835938 578.828125 179.078125 578.894531 179.585938 L 578.992188 180.539062 L 639.082031 180.539062 L 638.964844 177.867188 C 638.425781 165.1875 635.691406 153.523438 630.734375 142.773438 C 624.398438 129.0625 613.9375 116.367188 600.976562 106.652344 C 586.667969 95.9375 569.792969 88.5 550.804688 84.535156 C 543.621094 83.027344 536.464844 82.078125 527.398438 81.40625 C 524.371094 81.191406 508.640625 81.078125 505.300781 81.257812 M 838.976562 81.273438 C 807.15625 82.816406 777.59375 93.332031 753.859375 111.550781 C 739.78125 122.347656 727.195312 136.335938 717.816406 151.636719 C 706.996094 169.265625 699.269531 189.203125 695.011719 210.5 C 692.917969 221.050781 691.722656 230.683594 690.886719 243.855469 C 690.59375 248.363281 690.59375 268.726562 690.886719 273.261719 C 692.28125 295.296875 695.191406 311.632812 700.824219 328.964844 C 709.335938 355.226562 724.425781 379.226562 743.21875 396.445312 C 763.058594 414.628906 786.039062 426.210938 813.441406 431.847656 C 833.34375 435.945312 856.851562 436.550781 877.769531 433.46875 C 895.839844 430.816406 913.664062 424.949219 927.9375 416.941406 C 948.875 405.191406 964.34375 390.300781 976.636719 370.085938 C 986.964844 353.113281 993.332031 333.273438 995.625 310.945312 C 996.410156 303.324219 996.410156 303.703125 996.472656 276.246094 L 996.539062 250.164062 L 856.734375 250.164062 L 856.734375 298.984375 L 936.125 298.984375 L 936.125 300.6875 C 936.125 305.375 935.09375 313.730469 933.832031 319.167969 C 930.460938 333.75 923.585938 346.476562 913.78125 356.242188 C 902.109375 367.855469 885.921875 375.507812 867.539062 378.097656 C 861.335938 378.964844 858.0625 379.175781 850.515625 379.175781 C 843.804688 379.175781 841.972656 379.0625 836.929688 378.421875 C 816.515625 375.851562 799.347656 367.59375 785.613281 353.785156 C 771.128906 339.21875 761.042969 318.625 756.476562 294.332031 C 752.710938 274.328125 752.320312 249.148438 755.429688 228.210938 C 759 204.144531 767.492188 183.976562 780.882812 167.839844 C 783.09375 165.171875 788.578125 159.664062 791.179688 157.503906 C 803.863281 146.953125 818.792969 140.417969 835.457031 138.121094 C 843.296875 137.042969 853.117188 136.941406 861.480469 137.859375 C 876.722656 139.5625 890.128906 144.5625 900.683594 152.488281 C 906.152344 156.585938 911.292969 161.695312 915.613281 167.285156 C 921.308594 174.65625 926.335938 184.320312 929.414062 193.839844 L 930.082031 195.9375 L 961.804688 195.9375 C 979.253906 195.9375 993.5625 195.902344 993.609375 195.855469 C 993.726562 195.742188 992.773438 190.300781 992.121094 187.253906 C 988.550781 170.824219 982.234375 156.144531 972.65625 142.039062 C 956.796875 118.675781 932.898438 100.574219 904.53125 90.433594 C 889.898438 85.191406 875.917969 82.421875 858.617188 81.339844 C 854.527344 81.078125 843.769531 81.046875 838.976562 81.273438 "/>
</g>
</svg>
