<?xml version="1.0" encoding="UTF-8"?>
<svg xmlns="http://www.w3.org/2000/svg" xmlns:xlink="http://www.w3.org/1999/xlink" width="766px" height="383px" viewBox="0 0 766 383" version="1.1">
<g id="surface1">
<path style=" stroke:none;fill-rule:nonzero;fill:rgb(0%,0%,0%);fill-opacity:1;" d="M 130.027344 60.804688 C 100.617188 62.289062 74.632812 73.578125 55.136719 93.359375 C 49.929688 98.644531 45.847656 103.632812 41.765625 109.699219 C 35.710938 118.695312 30.613281 129.113281 26.875 140.15625 C 22.769531 152.316406 20.257812 165.710938 19.300781 180.53125 C 18.566406 191.992188 18.886719 205.042969 20.160156 216.027344 C 22.207031 233.699219 26.644531 249.277344 33.566406 263.128906 C 40.234375 276.476562 48.53125 287.617188 58.765625 296.96875 C 70.371094 307.558594 84.121094 315.417969 99.328125 320.136719 C 116.609375 325.492188 136.890625 327.109375 156.316406 324.671875 C 178.902344 321.839844 198.339844 313.441406 214.125 299.714844 C 216.035156 298.046875 221.023438 293.070312 222.628906 291.222656 C 228.742188 284.171875 233.363281 277.25 237.210938 269.34375 C 242.652344 258.175781 245.988281 246.03125 247.371094 232.328125 C 247.960938 226.519531 247.960938 226.332031 248.007812 206.246094 L 248.058594 187.160156 L 143.386719 187.160156 L 143.386719 223.6875 L 202.859375 223.6875 L 202.773438 225.488281 C 202.160156 238.984375 198.523438 250.320312 191.71875 259.84375 C 185.199219 268.976562 175.765625 275.875 164.488281 279.75 C 156.953125 282.335938 149.683594 283.523438 140.320312 283.707031 C 127.664062 283.953125 116.914062 281.699219 106.804688 276.695312 C 100.285156 273.472656 95.40625 269.96875 90.246094 264.820312 C 87.796875 262.355469 86.179688 260.492188 84.179688 257.859375 C 75.527344 246.363281 69.964844 232.230469 67.476562 215.414062 C 65.738281 203.597656 65.457031 189.121094 66.742188 176.679688 C 68.863281 155.992188 75.503906 138.855469 86.535156 125.570312 C 87.832031 124.015625 91.582031 120.191406 93.261719 118.71875 C 96.890625 115.53125 100.332031 113.140625 104.78125 110.691406 C 115.285156 104.929688 127.308594 102.257812 140.542969 102.722656 C 150.835938 103.078125 159.355469 104.992188 167.417969 108.753906 C 176.082031 112.800781 184.132812 119.921875 189.894531 128.636719 C 192.984375 133.292969 195.457031 138.402344 197.445312 144.140625 L 198.265625 146.53125 L 222.050781 146.566406 C 245.191406 146.589844 245.839844 146.589844 245.839844 146.359375 C 245.839844 145.953125 245.007812 141.417969 244.554688 139.421875 C 241.21875 124.527344 234.550781 110.972656 224.648438 98.972656 C 215.214844 87.550781 202.199219 77.683594 188.179688 71.335938 C 172.125 64.054688 155.617188 60.621094 136.953125 60.695312 C 134.257812 60.695312 131.144531 60.757812 130.027344 60.804688 Z M 130.027344 60.804688 "/>
<path style=" stroke:none;fill-rule:nonzero;fill:rgb(0%,0%,0%);fill-opacity:1;" d="M 378.320312 60.792969 C 364.972656 61.515625 353.527344 63.785156 342.496094 67.902344 C 336.675781 70.058594 329.886719 73.429688 324.761719 76.667969 C 312.960938 84.144531 303.5 94.351562 297.789062 105.777344 C 294.628906 112.101562 292.59375 118.632812 291.5625 125.828125 C 290.695312 131.820312 290.582031 139.25 291.257812 145.179688 C 292.824219 159.019531 298.167969 170.34375 307.445312 179.453125 C 317.25 189.085938 331.171875 197.039062 348.109375 202.664062 C 353.882812 204.589844 354.800781 204.835938 375.007812 210.019531 C 382.792969 212.019531 389.996094 213.867188 391.003906 214.136719 C 404.175781 217.65625 415.523438 222.09375 421.519531 226.050781 C 426.554688 229.386719 430.15625 233.050781 432.277344 236.984375 C 434.972656 241.996094 435.855469 248.457031 434.742188 255.003906 C 433.097656 264.625 426.984375 272.726562 417.046875 278.4375 C 411.457031 281.660156 404.1875 284.074219 396.761719 285.214844 C 387.496094 286.625 376.613281 286.441406 367.902344 284.710938 C 358.820312 282.921875 351.382812 279.796875 345.425781 275.3125 C 339.921875 271.167969 335.742188 265.949219 333.242188 260.089844 C 331.710938 256.511719 330.609375 252.207031 330.15625 248.078125 C 330.082031 247.367188 329.996094 246.605469 329.960938 246.386719 L 329.898438 245.992188 L 283.929688 245.992188 L 284.015625 247.367188 C 284.945312 263.644531 289.160156 277.347656 296.734375 288.707031 C 301.195312 295.386719 307.203125 301.675781 313.855469 306.628906 C 323.355469 313.699219 334.703125 318.847656 347.988281 322.109375 C 362.300781 325.613281 379.410156 326.863281 396.761719 325.664062 C 409.9375 324.742188 422.03125 322.253906 432.230469 318.371094 C 444.496094 313.6875 454.410156 307.449219 462.351562 299.421875 C 467.671875 294.027344 471.59375 288.535156 474.890625 281.84375 C 477.09375 277.371094 478.613281 273.214844 479.78125 268.507812 C 481.199219 262.796875 481.824219 257.859375 481.960938 251.507812 C 482.207031 238.96875 479.988281 228.578125 475.109375 219.46875 C 470.046875 210.007812 463.835938 202.984375 454.300781 195.960938 C 445.390625 189.402344 434.179688 183.949219 420.21875 179.378906 C 415.585938 177.859375 411.554688 176.753906 402.804688 174.585938 C 384.003906 169.941406 377.878906 168.394531 375.4375 167.683594 C 362.042969 163.835938 352.890625 159.484375 347.238281 154.289062 C 341.847656 149.3125 339.101562 144.089844 338.355469 137.398438 C 338.15625 135.632812 338.195312 131.871094 338.414062 130.15625 C 339.933594 118.328125 347.925781 109.207031 361.285156 104.058594 C 364.898438 102.675781 368.871094 101.671875 373.476562 100.996094 C 379.359375 100.136719 387.300781 100.015625 393.761719 100.691406 C 406.285156 101.988281 416.8125 106.621094 423.90625 113.9375 C 428.785156 118.964844 431.800781 124.996094 433.085938 132.3125 C 433.222656 133.046875 433.367188 133.980469 433.417969 134.359375 L 433.492188 135.070312 L 478.480469 135.070312 L 478.394531 133.070312 C 477.988281 123.585938 475.945312 114.859375 472.230469 106.816406 C 467.488281 96.558594 459.65625 87.058594 449.949219 79.792969 C 439.238281 71.777344 426.605469 66.210938 412.386719 63.246094 C 407.007812 62.117188 401.652344 61.40625 394.863281 60.902344 C 392.597656 60.746094 380.820312 60.660156 378.320312 60.792969 Z M 378.320312 60.792969 "/>
<path style=" stroke:none;fill-rule:nonzero;fill:rgb(0%,0%,0%);fill-opacity:1;" d="M 628.140625 60.804688 C 604.316406 61.957031 582.183594 69.828125 564.414062 83.457031 C 553.875 91.535156 544.449219 102 537.429688 113.449219 C 529.328125 126.636719 523.542969 141.554688 520.355469 157.488281 C 518.789062 165.378906 517.894531 172.585938 517.269531 182.441406 C 517.046875 185.8125 517.046875 201.046875 517.269531 204.441406 C 518.308594 220.929688 520.492188 233.148438 524.707031 246.117188 C 531.078125 265.765625 542.378906 283.71875 556.449219 296.601562 C 571.300781 310.207031 588.507812 318.871094 609.023438 323.089844 C 623.925781 326.152344 641.523438 326.605469 657.1875 324.300781 C 670.714844 322.316406 684.0625 317.929688 694.75 311.933594 C 710.421875 303.148438 722.003906 292.003906 731.207031 276.878906 C 738.941406 264.183594 743.707031 249.339844 745.421875 232.632812 C 746.011719 226.933594 746.011719 227.214844 746.0625 206.675781 L 746.109375 187.160156 L 641.4375 187.160156 L 641.4375 223.6875 L 700.875 223.6875 L 700.875 224.960938 C 700.875 228.464844 700.105469 234.71875 699.160156 238.785156 C 696.636719 249.695312 691.488281 259.21875 684.148438 266.523438 C 675.410156 275.214844 663.289062 280.9375 649.527344 282.875 C 644.882812 283.523438 642.429688 283.683594 636.78125 283.683594 C 631.757812 283.683594 630.382812 283.597656 626.609375 283.121094 C 611.328125 281.195312 598.472656 275.019531 588.1875 264.683594 C 577.34375 253.789062 569.792969 238.382812 566.375 220.207031 C 563.554688 205.238281 563.261719 186.402344 565.589844 170.738281 C 568.261719 152.730469 574.621094 137.644531 584.648438 125.570312 C 586.300781 123.574219 590.40625 119.453125 592.355469 117.835938 C 601.855469 109.941406 613.03125 105.054688 625.507812 103.335938 C 631.375 102.527344 638.730469 102.453125 644.992188 103.140625 C 656.402344 104.414062 666.4375 108.152344 674.34375 114.085938 C 678.4375 117.148438 682.285156 120.972656 685.519531 125.152344 C 689.785156 130.667969 693.546875 137.902344 695.851562 145.023438 L 696.355469 146.589844 L 720.105469 146.589844 C 733.167969 146.589844 743.878906 146.566406 743.917969 146.53125 C 744 146.445312 743.292969 142.375 742.800781 140.09375 C 740.128906 127.800781 735.398438 116.820312 728.230469 106.265625 C 716.355469 88.789062 698.460938 75.246094 677.222656 67.65625 C 666.265625 63.734375 655.800781 61.664062 642.847656 60.855469 C 639.785156 60.660156 631.730469 60.632812 628.140625 60.804688 Z M 628.140625 60.804688 "/>
</g>
</svg>
