<?xml version="1.0" encoding="UTF-8"?>
<svg xmlns="http://www.w3.org/2000/svg" xmlns:xlink="http://www.w3.org/1999/xlink" width="828px" height="414px" viewBox="0 0 828 414" version="1.1">
<g id="surface1">
<path style=" stroke:none;fill-rule:nonzero;fill:rgb(0%,0%,0%);fill-opacity:1;" d="M 140.550781 65.726562 C 108.757812 67.332031 80.675781 79.53125 59.597656 100.917969 C 53.96875 106.625 49.558594 112.019531 45.144531 118.578125 C 38.601562 128.300781 33.089844 139.5625 29.050781 151.5 C 24.613281 164.644531 21.898438 179.125 20.863281 195.140625 C 20.070312 207.53125 20.414062 221.640625 21.792969 233.511719 C 24.003906 252.617188 28.800781 269.453125 36.285156 284.425781 C 43.492188 298.855469 52.457031 310.898438 63.519531 321.007812 C 76.066406 332.453125 90.929688 340.945312 107.367188 346.046875 C 126.046875 351.835938 147.96875 353.585938 168.96875 350.949219 C 193.382812 347.886719 214.390625 338.8125 231.453125 323.972656 C 233.519531 322.171875 238.914062 316.792969 240.648438 314.792969 C 247.257812 307.175781 252.253906 299.6875 256.410156 291.144531 C 262.292969 279.074219 265.898438 265.945312 267.394531 251.132812 C 268.03125 244.851562 268.03125 244.652344 268.082031 222.9375 L 268.136719 202.308594 L 154.992188 202.308594 L 154.992188 241.792969 L 219.28125 241.792969 L 219.1875 243.738281 C 218.523438 258.324219 214.589844 270.582031 207.238281 280.875 C 200.191406 290.746094 189.992188 298.203125 177.804688 302.390625 C 169.65625 305.1875 161.800781 306.472656 151.679688 306.671875 C 137.996094 306.9375 126.378906 304.5 115.449219 299.09375 C 108.402344 295.609375 103.128906 291.820312 97.550781 286.253906 C 94.902344 283.589844 93.152344 281.578125 90.996094 278.730469 C 81.640625 266.300781 75.628906 251.027344 72.9375 232.847656 C 71.058594 220.078125 70.753906 204.429688 72.144531 190.980469 C 74.4375 168.617188 81.617188 150.097656 93.539062 135.734375 C 94.941406 134.050781 98.996094 129.917969 100.8125 128.328125 C 104.730469 124.882812 108.453125 122.300781 113.261719 119.648438 C 124.617188 113.421875 137.613281 110.535156 151.917969 111.039062 C 163.046875 111.421875 172.253906 113.488281 180.96875 117.558594 C 190.335938 121.929688 199.039062 129.625 205.265625 139.046875 C 208.601562 144.082031 211.277344 149.605469 213.425781 155.804688 L 214.3125 158.390625 L 240.023438 158.429688 C 265.035156 158.457031 265.738281 158.457031 265.738281 158.203125 C 265.738281 157.765625 264.835938 152.863281 264.347656 150.707031 C 260.742188 134.609375 253.539062 119.953125 242.832031 106.984375 C 232.632812 94.636719 218.566406 83.972656 203.410156 77.109375 C 186.054688 69.238281 168.210938 65.527344 148.035156 65.609375 C 145.121094 65.609375 141.757812 65.675781 140.550781 65.726562 Z M 140.550781 65.726562 "/>
<path style=" stroke:none;fill-rule:nonzero;fill:rgb(0%,0%,0%);fill-opacity:1;" d="M 408.941406 65.714844 C 394.511719 66.496094 382.140625 68.945312 370.21875 73.398438 C 363.925781 75.730469 356.585938 79.375 351.050781 82.871094 C 338.292969 90.953125 328.066406 101.988281 321.890625 114.335938 C 318.476562 121.175781 316.277344 128.234375 315.164062 136.011719 C 314.222656 142.492188 314.101562 150.519531 314.832031 156.933594 C 316.527344 171.890625 322.304688 184.132812 332.332031 193.976562 C 342.929688 204.390625 357.976562 212.988281 376.285156 219.070312 C 382.523438 221.148438 383.519531 221.414062 405.363281 227.019531 C 413.773438 229.179688 421.5625 231.179688 422.652344 231.46875 C 436.890625 235.273438 449.15625 240.070312 455.636719 244.347656 C 461.082031 247.953125 464.976562 251.914062 467.265625 256.167969 C 470.179688 261.585938 471.136719 268.566406 469.929688 275.640625 C 468.15625 286.042969 461.542969 294.800781 450.800781 300.972656 C 444.761719 304.457031 436.90625 307.070312 428.875 308.300781 C 418.863281 309.824219 407.097656 309.625 397.679688 307.757812 C 387.863281 305.824219 379.824219 302.445312 373.382812 297.59375 C 367.4375 293.117188 362.917969 287.472656 360.214844 281.140625 C 358.5625 277.273438 357.367188 272.621094 356.878906 268.15625 C 356.796875 267.386719 356.707031 266.566406 356.667969 266.328125 L 356.601562 265.90625 L 306.910156 265.90625 L 307.003906 267.386719 C 308.007812 284.984375 312.566406 299.796875 320.753906 312.078125 C 325.574219 319.296875 332.066406 326.09375 339.257812 331.445312 C 349.527344 339.089844 361.792969 344.65625 376.152344 348.179688 C 391.625 351.96875 410.117188 353.320312 428.875 352.023438 C 443.117188 351.027344 456.191406 348.339844 467.214844 344.140625 C 480.472656 339.078125 491.191406 332.335938 499.773438 323.65625 C 505.523438 317.828125 509.761719 311.890625 513.328125 304.65625 C 515.710938 299.820312 517.355469 295.328125 518.613281 290.242188 C 520.148438 284.070312 520.824219 278.730469 520.972656 271.867188 C 521.234375 258.3125 518.839844 247.078125 513.566406 237.234375 C 508.09375 227.003906 501.378906 219.414062 491.070312 211.824219 C 481.441406 204.734375 469.320312 198.839844 454.230469 193.898438 C 449.222656 192.253906 444.867188 191.0625 435.40625 188.714844 C 415.085938 183.695312 408.460938 182.027344 405.828125 181.257812 C 391.347656 177.097656 381.453125 172.394531 375.34375 166.777344 C 369.515625 161.398438 366.546875 155.753906 365.742188 148.519531 C 365.527344 146.613281 365.570312 142.542969 365.808594 140.691406 C 367.449219 127.90625 376.085938 118.046875 390.527344 112.484375 C 394.433594 110.984375 398.726562 109.898438 403.707031 109.171875 C 410.066406 108.242188 418.648438 108.109375 425.632812 108.839844 C 439.167969 110.242188 450.550781 115.25 458.21875 123.160156 C 463.492188 128.59375 466.75 135.113281 468.140625 143.019531 C 468.285156 143.816406 468.445312 144.824219 468.5 145.234375 L 468.578125 146.003906 L 517.207031 146.003906 L 517.117188 143.84375 C 516.679688 133.589844 514.464844 124.15625 510.453125 115.464844 C 505.324219 104.375 496.859375 94.105469 486.371094 86.25 C 474.792969 77.585938 461.132812 71.570312 445.765625 68.363281 C 439.953125 67.144531 434.164062 66.375 426.824219 65.832031 C 424.371094 65.660156 411.640625 65.570312 408.941406 65.714844 Z M 408.941406 65.714844 "/>
<path style=" stroke:none;fill-rule:nonzero;fill:rgb(0%,0%,0%);fill-opacity:1;" d="M 678.984375 65.726562 C 653.230469 66.972656 629.304688 75.480469 610.097656 90.210938 C 598.703125 98.941406 588.519531 110.257812 580.925781 122.632812 C 572.171875 136.886719 565.917969 153.011719 562.472656 170.234375 C 560.777344 178.765625 559.8125 186.558594 559.136719 197.210938 C 558.898438 200.851562 558.898438 217.320312 559.136719 220.992188 C 560.261719 238.808594 562.621094 252.019531 567.175781 266.035156 C 574.066406 287.273438 586.277344 306.683594 601.488281 320.609375 C 617.542969 335.316406 636.140625 344.683594 658.316406 349.238281 C 674.425781 352.550781 693.449219 353.042969 710.378906 350.550781 C 725.003906 348.40625 739.429688 343.660156 750.980469 337.183594 C 767.925781 327.683594 780.441406 315.640625 790.390625 299.292969 C 798.75 285.566406 803.902344 269.519531 805.757812 251.464844 C 806.394531 245.300781 806.394531 245.605469 806.445312 223.402344 L 806.5 202.308594 L 693.355469 202.308594 L 693.355469 241.792969 L 757.605469 241.792969 L 757.605469 243.167969 C 757.605469 246.957031 756.769531 253.714844 755.75 258.113281 C 753.019531 269.90625 747.457031 280.199219 739.523438 288.097656 C 730.078125 297.488281 716.976562 303.675781 702.097656 305.769531 C 697.078125 306.472656 694.429688 306.644531 688.320312 306.644531 C 682.890625 306.644531 681.40625 306.550781 677.328125 306.035156 C 660.808594 303.953125 646.910156 297.277344 635.796875 286.109375 C 624.074219 274.332031 615.914062 257.675781 612.21875 238.027344 C 609.171875 221.851562 608.851562 201.488281 611.371094 184.554688 C 614.257812 165.09375 621.132812 148.785156 631.96875 135.734375 C 633.757812 133.574219 638.195312 129.125 640.300781 127.375 C 650.566406 118.84375 662.648438 113.554688 676.132812 111.699219 C 682.480469 110.828125 690.429688 110.746094 697.199219 111.488281 C 709.53125 112.867188 720.378906 116.90625 728.925781 123.320312 C 733.347656 126.632812 737.507812 130.765625 741.007812 135.285156 C 745.617188 141.246094 749.683594 149.0625 752.171875 156.761719 L 752.714844 158.457031 L 778.390625 158.457031 C 792.511719 158.457031 804.089844 158.429688 804.128906 158.390625 C 804.222656 158.296875 803.453125 153.898438 802.921875 151.433594 C 800.035156 138.144531 794.921875 126.273438 787.171875 114.867188 C 774.335938 95.976562 754.996094 81.335938 732.039062 73.132812 C 720.195312 68.894531 708.882812 66.65625 694.878906 65.78125 C 691.566406 65.570312 682.863281 65.542969 678.984375 65.726562 Z M 678.984375 65.726562 "/>
</g>
</svg>
