<?xml version="1.0" encoding="UTF-8"?>
<svg xmlns="http://www.w3.org/2000/svg" xmlns:xlink="http://www.w3.org/1999/xlink" width="829px" height="415px" viewBox="0 0 830 415" version="1.1">
<g id="surface1">
<path style=" stroke:none;fill-rule:nonzero;fill:rgb(0%,0%,0%);fill-opacity:1;" d="M 140.890625 65.886719 C 109.023438 67.492188 80.871094 79.726562 59.742188 101.160156 C 54.097656 106.882812 49.675781 112.289062 45.253906 118.863281 C 38.695312 128.613281 33.171875 139.902344 29.121094 151.867188 C 24.671875 165.042969 21.949219 179.558594 20.914062 195.613281 C 20.117188 208.03125 20.464844 222.175781 21.84375 234.074219 C 24.0625 253.226562 28.867188 270.105469 36.371094 285.113281 C 43.59375 299.574219 52.585938 311.648438 63.671875 321.78125 C 76.25 333.257812 91.148438 341.769531 107.628906 346.882812 C 126.351562 352.6875 148.328125 354.4375 169.375 351.796875 C 193.847656 348.730469 214.910156 339.632812 232.011719 324.757812 C 234.085938 322.949219 239.488281 317.558594 241.230469 315.554688 C 247.855469 307.917969 252.863281 300.414062 257.03125 291.847656 C 262.925781 279.746094 266.539062 266.585938 268.039062 251.738281 C 268.675781 245.445312 268.675781 245.246094 268.730469 223.476562 L 268.785156 202.796875 L 155.367188 202.796875 L 155.367188 242.375 L 219.808594 242.375 L 219.71875 244.328125 C 219.054688 258.949219 215.109375 271.234375 207.738281 281.554688 C 200.675781 291.449219 190.449219 298.925781 178.234375 303.121094 C 170.066406 305.925781 162.191406 307.210938 152.046875 307.410156 C 138.328125 307.675781 126.683594 305.234375 115.726562 299.816406 C 108.664062 296.324219 103.378906 292.523438 97.789062 286.945312 C 95.132812 284.277344 93.378906 282.257812 91.214844 279.402344 C 81.839844 266.945312 75.8125 251.632812 73.113281 233.410156 C 71.230469 220.609375 70.925781 204.921875 72.316406 191.445312 C 74.617188 169.023438 81.8125 150.457031 93.765625 136.0625 C 95.171875 134.375 99.234375 130.230469 101.054688 128.636719 C 104.984375 125.183594 108.714844 122.59375 113.535156 119.9375 C 124.917969 113.699219 137.945312 110.800781 152.285156 111.308594 C 163.441406 111.691406 172.667969 113.765625 181.40625 117.839844 C 190.792969 122.222656 199.519531 129.941406 205.761719 139.382812 C 209.105469 144.429688 211.789062 149.96875 213.941406 156.183594 L 214.832031 158.773438 L 240.605469 158.8125 C 265.675781 158.839844 266.378906 158.839844 266.378906 158.585938 C 266.378906 158.148438 265.476562 153.234375 264.984375 151.070312 C 261.375 134.933594 254.148438 120.246094 243.421875 107.242188 C 233.195312 94.863281 219.09375 84.175781 203.902344 77.292969 C 186.503906 69.40625 168.617188 65.6875 148.394531 65.765625 C 145.472656 65.765625 142.101562 65.832031 140.890625 65.886719 Z M 140.890625 65.886719 "/>
<path style=" stroke:none;fill-rule:nonzero;fill:rgb(0%,0%,0%);fill-opacity:1;" d="M 409.925781 65.871094 C 395.464844 66.65625 383.0625 69.113281 371.113281 73.574219 C 364.804688 75.914062 357.449219 79.566406 351.898438 83.070312 C 339.109375 91.171875 328.859375 102.234375 322.671875 114.613281 C 319.242188 121.464844 317.039062 128.546875 315.925781 136.339844 C 314.980469 142.835938 314.863281 150.882812 315.59375 157.3125 C 317.292969 172.304688 323.082031 184.578125 333.132812 194.445312 C 343.757812 204.882812 358.84375 213.503906 377.195312 219.597656 C 383.449219 221.683594 384.445312 221.949219 406.34375 227.566406 C 414.773438 229.730469 422.582031 231.738281 423.671875 232.03125 C 437.945312 235.839844 450.242188 240.648438 456.738281 244.9375 C 462.195312 248.550781 466.097656 252.523438 468.394531 256.785156 C 471.316406 262.21875 472.273438 269.214844 471.066406 276.308594 C 469.285156 286.734375 462.660156 295.511719 451.890625 301.699219 C 445.835938 305.195312 437.960938 307.808594 429.914062 309.046875 C 419.875 310.574219 408.082031 310.375 398.640625 308.5 C 388.800781 306.5625 380.738281 303.175781 374.285156 298.3125 C 368.324219 293.824219 363.796875 288.167969 361.085938 281.820312 C 359.425781 277.941406 358.230469 273.28125 357.742188 268.804688 C 357.660156 268.035156 357.566406 267.210938 357.527344 266.972656 L 357.460938 266.546875 L 307.652344 266.546875 L 307.746094 268.035156 C 308.753906 285.671875 313.320312 300.519531 321.527344 312.832031 C 326.363281 320.070312 332.867188 326.882812 340.078125 332.246094 C 350.371094 339.910156 362.667969 345.488281 377.0625 349.019531 C 392.570312 352.820312 411.109375 354.171875 429.914062 352.871094 C 444.1875 351.875 457.292969 349.179688 468.34375 344.96875 C 481.636719 339.898438 492.378906 333.136719 500.984375 324.4375 C 506.746094 318.59375 510.996094 312.644531 514.566406 305.394531 C 516.957031 300.546875 518.605469 296.042969 519.867188 290.945312 C 521.40625 284.753906 522.082031 279.402344 522.230469 272.523438 C 522.496094 258.9375 520.089844 247.675781 514.804688 237.808594 C 509.320312 227.554688 502.589844 219.945312 492.257812 212.335938 C 482.605469 205.230469 470.453125 199.320312 455.328125 194.367188 C 450.308594 192.71875 445.941406 191.523438 436.460938 189.171875 C 416.089844 184.140625 409.449219 182.464844 406.808594 181.695312 C 392.292969 177.523438 382.375 172.808594 376.25 167.179688 C 370.410156 161.789062 367.433594 156.128906 366.625 148.878906 C 366.410156 146.964844 366.453125 142.886719 366.691406 141.03125 C 368.335938 128.214844 376.996094 118.332031 391.46875 112.753906 C 395.386719 111.253906 399.6875 110.164062 404.683594 109.433594 C 411.054688 108.503906 419.660156 108.371094 426.660156 109.101562 C 440.230469 110.511719 451.636719 115.53125 459.324219 123.457031 C 464.609375 128.902344 467.878906 135.4375 469.273438 143.367188 C 469.417969 144.164062 469.578125 145.171875 469.628906 145.585938 L 469.710938 146.355469 L 518.457031 146.355469 L 518.363281 144.191406 C 517.925781 133.910156 515.710938 124.453125 511.683594 115.742188 C 506.546875 104.625 498.0625 94.332031 487.542969 86.457031 C 475.9375 77.773438 462.246094 71.742188 446.84375 68.527344 C 441.015625 67.308594 435.210938 66.535156 427.855469 65.992188 C 425.398438 65.820312 412.636719 65.726562 409.925781 65.871094 Z M 409.925781 65.871094 "/>
<path style=" stroke:none;fill-rule:nonzero;fill:rgb(0%,0%,0%);fill-opacity:1;" d="M 680.621094 65.886719 C 654.808594 67.132812 630.824219 75.660156 611.570312 90.429688 C 600.152344 99.179688 589.941406 110.523438 582.332031 122.925781 C 573.554688 137.21875 567.285156 153.378906 563.832031 170.644531 C 562.132812 179.199219 561.164062 187.007812 560.488281 197.683594 C 560.246094 201.335938 560.246094 217.847656 560.488281 221.523438 C 561.613281 239.386719 563.980469 252.628906 568.546875 266.679688 C 575.453125 287.96875 587.695312 307.425781 602.941406 321.382812 C 619.035156 336.125 637.679688 345.515625 659.90625 350.082031 C 676.054688 353.402344 695.125 353.894531 712.09375 351.398438 C 726.753906 349.246094 741.214844 344.492188 752.796875 337.996094 C 769.777344 328.476562 782.328125 316.402344 792.300781 300.015625 C 800.679688 286.253906 805.84375 270.171875 807.703125 252.070312 C 808.339844 245.894531 808.339844 246.199219 808.394531 223.941406 L 808.449219 202.796875 L 695.03125 202.796875 L 695.03125 242.375 L 759.433594 242.375 L 759.433594 243.757812 C 759.433594 247.554688 758.597656 254.328125 757.574219 258.738281 C 754.839844 270.558594 749.261719 280.875 741.308594 288.792969 C 731.839844 298.207031 718.707031 304.410156 703.796875 306.507812 C 698.761719 307.210938 696.105469 307.386719 689.984375 307.386719 C 684.539062 307.386719 683.054688 307.292969 678.964844 306.773438 C 662.402344 304.6875 648.472656 297.996094 637.332031 286.800781 C 625.582031 274.992188 617.402344 258.300781 613.695312 238.605469 C 610.640625 222.386719 610.324219 201.976562 612.847656 185.003906 C 615.742188 165.492188 622.632812 149.144531 633.496094 136.0625 C 635.289062 133.898438 639.738281 129.433594 641.847656 127.683594 C 652.140625 119.128906 664.25 113.832031 677.769531 111.972656 C 684.128906 111.09375 692.097656 111.015625 698.882812 111.757812 C 711.246094 113.140625 722.121094 117.191406 730.683594 123.617188 C 735.121094 126.9375 739.289062 131.082031 742.796875 135.609375 C 747.417969 141.585938 751.492188 149.421875 753.988281 157.140625 L 754.535156 158.839844 L 780.269531 158.839844 C 794.425781 158.839844 806.03125 158.8125 806.070312 158.773438 C 806.164062 158.679688 805.394531 154.269531 804.863281 151.800781 C 801.96875 138.480469 796.84375 126.578125 789.074219 115.144531 C 776.207031 96.207031 756.820312 81.53125 733.804688 73.308594 C 721.933594 69.058594 710.59375 66.816406 696.558594 65.9375 C 693.238281 65.726562 684.511719 65.699219 680.621094 65.886719 Z M 680.621094 65.886719 "/>
</g>
</svg>
